<?xml version="1.0" encoding="utf-8"?>
<!-- Generator: Adobe Illustrator 28.0.0, SVG Export Plug-In . SVG Version: 6.00 Build 0)  -->
<svg version="1.1" id="Layer_1" xmlns="http://www.w3.org/2000/svg" xmlns:xlink="http://www.w3.org/1999/xlink" x="0px" y="0px"
	 viewBox="55 55 890 890" style="enable-background:new 55 55 890 890;" xml:space="preserve">
<style type="text/css">
	.st0{fill:#5BE1FF;}
	.st1{fill:#5BE1FF;}
	.st2{fill:#5BE1FF;}
	.st3{fill:#5BE1FF;}
	.st4{fill:#5BE1FF;}
	.st5{fill:#5BE1FF;}
	.st6{fill:#5BE1FF;}

</style>
	<g>
	<path class="st0" d="M583.27,54.22c25.6-2.86,50.46,5.37,73.16,14.73c33.13,13.65,62.76,32.58,91.97,51.56
		c29.94,17.47,53.96,41.31,75.63,66.02c12.49,14.07,24.11,28.71,34.94,43.76c7.89,11.26,16.74,22.38,20.5,35.32
		c3.47,11.57,8.34,23.97,3.73,35.83c-3.29,9.57-13.97,14.73-22.31,20.72c-26.7,16.57-54.8,31.41-83.24,45.64
		c-15.97,7.96-31.91,16.01-48.47,23.02c-6.88,2.93-14.47,4.92-22.23,4.38c-11.7-1.02-24.61-0.39-34.49-6.92
		c-21.32-14.06-41.37-29.5-61.57-44.73c-18.85-14.87-37.85-29.63-55.79-45.31c-7.45-7.55-18.01-14.55-18.67-25.27
		c-2.46-23.1-6.76-46.09-6.91-69.35c-0.4-23.48-0.68-46.98-0.03-70.47c0.21-12.45,2.63-24.79,5.99-36.85
		c2.84-10.2,7.11-20.62,15.82-28.22C559.63,60.39,571.32,55.89,583.27,54.22z"/>
		<path class="st1" d="M383.03,56.1c13.03-1.72,26.37-1.49,39.49-0.65c17.35,2.83,32.05,14.51,37.76,28.85
		c6.76,14.13,8.43,29.45,10.21,44.51c0.84,22.93,0.59,45.9,0.28,68.85c0.16,18.22-3.2,36.27-4.2,54.45
		c-2.3,12.39-0.91,26.77-11.65,36.55c-19.96,18.96-42,36.19-63.94,53.41c-18.15,13.41-35.88,27.25-54.54,40.17
		c-7.25,5.51-15.52,10.77-25.41,11.69c-8.99,0.63-18.06,2.17-27.07,1.07c-9.63-1.91-18.13-6.49-26.79-10.41
		c-19.61-8.94-38.69-18.72-57.78-28.46c-23.04-12.58-46.72-24.47-68.09-39.17c-6.32-4.36-12.77-9.39-14.94-16.39
		c-3.45-11.29,0.28-22.92,3.88-33.81c3.8-13.35,12.56-25.03,20.66-36.67c7.05-10.28,16.98-18.72,25.05-28.37
		c11.57-12.7,22.33-25.91,33.25-39.01c16.88-20.09,40.5-34.7,63.32-49.32C299.44,89.9,338.21,66.58,383.03,56.1z"/>
		<path class="st2" d="M491.01,346.49c10-2.06,20.71-0.78,29.49,3.9c23.25,11.48,43.79,26.52,65.46,40.02
		c14.54,9.98,30.66,18.8,42.26,31.54c10.82,11.92,13.74,27.37,14.72,42.08c0.38,37.59,0.42,75.18,0.02,112.76
		c-0.8,9.45-2.65,18.96-6.22,27.95c-4.41,11.32-14.93,19.59-25,27.28c-21.88,15.44-45.06,29.44-67.65,44.08
		c-14.06,8.16-28.62,19.16-46.73,17.71c-8.19,0.11-15.43-3.58-22.38-6.86c-14.07-7.16-26.93-15.91-40.11-24.18
		c-13.83-9.18-28.1-17.86-41.73-27.27c-10.76-7.95-22.17-16.1-28.27-27.45c-6.15-12.1-8.01-25.51-7.73-38.63
		c-0.24-34.15-0.24-68.28,0.07-102.41c0.02-14.66,2.68-30.13,12.44-42.45c12.85-15.17,31.47-25.43,48.41-36.81
		c19.46-11.8,37.69-25.12,58.12-35.7C480.82,349.69,485.76,347.64,491.01,346.49z"/>
		<path class="st3" d="M860.34,373.27c15.31-1.28,31.4,1.9,43.6,10.23c8.76,6.12,16.91,13.18,22.61,21.66
		c12.24,17.74,17.19,38.48,19.37,58.81c0.77,37.76,0.77,75.58-1.97,113.24c-4.72,23.12-12.11,46.17-25.27,66.83
		c-7.89,12.82-25,20-41.46,19.68c-12.18-0.05-24.56,0.71-36.49-1.87c-36.16-7.24-69.6-22.38-99.6-40.99
		c-9.84-5.96-18.6-13.12-27.02-20.5c-8.88-7.64-17.1-16.69-19.51-27.58c-1.55-7.06-2.96-14.21-2.94-21.41
		c-0.35-22.62-0.45-45.25-0.05-67.87c0.05-7.15,1.11-14.36,3.66-21.19c2.49-6.38,8.1-11.24,13.6-15.79
		c13.92-11.78,30.03-21.38,45.39-31.68c22.45-15.14,47.62-27.36,74.48-35.53C839,376.37,849.56,374.19,860.34,373.27z"/>
		<path class="st4" d="M116.41,374.84c12.3-1.29,24.91-1.17,37.21,0.15c34.91,7.31,67.32,22.39,95.12,41.9
		c17.78,11.69,36.56,22.66,51.07,37.53c7.16,7.8,7.44,18.33,8.64,27.8c0.28,30.02,1.81,60.24-2.89,90.07
		c-3.94,16.46-19.07,28.34-32.83,39.2c-33.08,23.39-71.62,41.61-113.34,50.32c-11.9,2.69-24.32,1.87-36.47,1.91
		c-12.75,0.33-25.43-4.24-34.77-11.63c-11.01-10.56-15.69-24.54-21.42-37.56c-6.18-16.57-10.92-33.71-12.28-51.12
		c-0.24-28.61-1.1-57.22-0.68-85.82c-0.07-26.4,5.66-53.78,22.45-76.27C86.23,389.47,99.45,378.39,116.41,374.84z"/>
		<path class="st5" d="M301.57,642.86c10.85-1.23,21.86,1.97,29.82,8.41c38.49,27.78,75.93,56.64,112.83,85.97
		c9.04,7.99,20.62,14.55,25.6,25.3c9.21,17.23,9.84,36.52,11.76,55.11c2.02,13.26-0.7,26.55-2.07,39.76
		c-1.06,16.58-5.52,32.9-11.15,48.74c-3.9,10.05-9.06,20.02-17.16,28.1c-6.71,6.65-16.93,9.24-26.63,10.67
		c-25.76,4.48-54.36-1.6-73.49-17.47c-27.52-21.87-56.21-42.6-83.4-64.77c-17.98-15.55-36.84-30.41-52.67-47.67
		c-14.65-15.8-28.57-32.37-38.15-50.94c-4.6-8.91-9.41-18.01-10.64-27.8c0.26-14.58,10.35-27.13,20.99-37.73
		c19.98-18.77,44.56-33.75,71.19-44.65C272.03,648.34,286.48,643.96,301.57,642.86z"/>
		<path class="st6" d="M682.52,644.33c19.53-3.27,39.35,1.76,56.96,8.97c29.18,11.9,56.49,28.16,77.28,49.66
		c7.99,9.35,16.65,19.76,16.36,31.93c0.59,9.71-5.19,18.4-9.34,27.1c-8.48,17.29-21.15,32.69-34.09,47.66
		c-37.27,38.99-81.88,71.98-125.52,105.45c-8.69,6.61-16.49,14.22-26.42,19.53c-11.23,5.97-24.02,10.71-37.45,10.5
		c-14.2,0.06-29.25,0.84-42.24-4.97c-8.9-3.99-14.27-11.68-18.9-19.02c-11.98-21.08-16.08-44.62-19.68-67.66
		c-0.47-16.72-0.75-33.5,0.03-50.2c2.68-15.23,4.67-31.14,13.62-44.77c3.43-5.46,8.73-9.74,13.9-13.94
		c39.59-31.11,79.01-62.39,120.32-91.78C672.03,649.53,676.77,646.08,682.52,644.33z"/>
</g>
</svg>
